<svg width="1200" height="171" viewBox="0 0 1200 171" fill="none" xmlns="http://www.w3.org/2000/svg">
<g clip-path="url(#clip0_103_1864)">
<path d="M62.4725 0H77.9423V25.1137H72.5941L21.9859 167.783H0L62.4725 0ZM35.6019 101.974H110.059L117.039 119.76H28.6224L35.6019 101.974ZM73.0669 25.1137V0H83.1885L145.55 167.783H123.564L73.0669 25.1137Z" fill="white"/>
<path d="M156.83 46.8554H177.073V67.3188H177.537C179.557 60.3433 183.043 54.8036 188.011 50.6906C192.97 46.5868 198.865 44.5303 205.696 44.5303C207.475 44.5303 209.088 44.6322 210.525 44.8174C211.962 45.012 213.065 45.188 213.843 45.3362V64.9843C213.065 64.6786 211.693 64.4007 209.709 64.1691C207.735 63.9376 205.501 63.8171 203.017 63.8171C197.817 63.8171 193.266 64.9844 189.345 67.3095C185.425 69.6347 182.403 72.9881 180.271 77.3698C178.139 81.7515 177.073 87.004 177.073 93.1272V167.773H156.83V46.8554Z" fill="white"/>
<path d="M240.083 162.382C231.667 157.231 225.17 149.941 220.6 140.52C216.021 131.099 213.732 120.001 213.732 107.208V107.088C213.732 94.3778 216.058 83.3263 220.711 73.9515C225.364 64.5768 231.88 57.3233 240.26 52.2098C248.639 47.0963 258.408 44.5396 269.577 44.5396C279.662 44.5396 288.31 46.4942 295.521 50.4127C302.732 54.3312 308.414 59.3891 312.566 65.5865C316.719 71.7931 319.212 78.3425 320.074 85.2346L320.195 86.161H300.415L300.183 85.2346C298.709 79.1855 295.475 73.8774 290.469 69.3012C285.464 64.725 278.503 62.4369 269.586 62.4369C262.607 62.4369 256.48 64.2803 251.206 67.958C245.932 71.6449 241.817 76.8325 238.879 83.5394C235.931 90.2463 234.457 98.1759 234.457 107.319V107.44C234.457 116.824 235.95 124.846 238.934 131.506C241.919 138.176 246.071 143.29 251.382 146.856C256.693 150.423 262.839 152.201 269.818 152.201C278.114 152.201 284.843 150.089 290.006 145.865C295.159 141.641 298.598 136.157 300.304 129.413L300.535 128.486H320.426L320.306 129.302C319.221 136.972 316.404 143.892 311.871 150.061C307.329 156.222 301.481 161.104 294.307 164.716C287.132 168.32 278.967 170.126 269.818 170.126C258.417 170.126 248.509 167.551 240.093 162.391L240.083 162.382Z" fill="white"/>
<path d="M335.313 14.1826H355.556V66.1608H356.019C359.273 59.3428 364.12 54.0254 370.562 50.2274C376.995 46.4293 384.716 44.5302 393.716 44.5302C402.716 44.5302 409.872 46.6053 416.341 50.7554C422.82 54.9055 427.881 60.6582 431.524 68.0228C435.166 75.3873 436.992 83.9562 436.992 93.7201V167.792H416.749V97.2124C416.749 86.2814 414.108 77.7588 408.834 71.6356C403.559 65.5123 396.191 62.4461 386.727 62.4461C380.517 62.4461 375.076 63.919 370.386 66.8648C365.696 69.8106 362.044 73.8774 359.449 79.0743C356.853 84.2712 355.547 90.311 355.547 97.2124V167.792H335.303V14.1826H335.313Z" fill="white"/>
<path d="M459.219 46.8555H479.463V167.783H459.219V46.8555Z" fill="white"/>
<path d="M458.922 10.2642L1127.81 11.0608V31.0332L458.922 30.2365V10.2642Z" fill="white"/>
<path d="M491.799 46.8555H513.09L546.477 146.273H546.94L580.447 46.8555H601.506L557.062 167.783H536.355L491.799 46.8555Z" fill="white"/>
<path d="M627.867 162.438C619.525 157.324 613.129 150.098 608.671 140.751C604.213 131.414 601.979 120.427 601.979 107.792V107.671C601.979 95.193 604.231 84.2064 608.727 74.7112C613.222 65.2159 619.544 57.8143 627.691 52.5063C635.838 47.1982 645.413 44.5396 656.425 44.5396C667.436 44.5396 676.918 47.0778 684.871 52.1542C692.824 57.2307 698.932 64.3452 703.195 73.4884C707.459 82.6315 709.591 93.2569 709.591 105.346V112.785H612.101V96.9716H699.59L689.348 111.627V103.836C689.348 94.4612 687.93 86.7075 685.103 80.5843C682.266 74.461 678.373 69.9033 673.415 66.9204C668.446 63.9376 662.746 62.4461 656.313 62.4461C649.881 62.4461 644.097 64.0117 638.98 67.152C633.864 70.2924 629.823 74.9427 626.885 81.1031C623.937 87.2634 622.463 94.841 622.463 103.836V111.627C622.463 120.158 623.919 127.44 626.829 133.489C629.739 139.538 633.864 144.17 639.221 147.384C644.57 150.599 650.891 152.211 658.186 152.211C663.302 152.211 667.881 151.432 671.913 149.885C675.945 148.338 679.319 146.208 682.035 143.494C684.75 140.779 686.688 137.676 687.855 134.193L688.208 133.146H708.099L707.867 134.313C706.857 139.279 704.938 143.929 702.111 148.264C699.275 152.609 695.651 156.426 691.229 159.714C686.808 163.012 681.766 165.569 676.102 167.384C670.439 169.209 664.312 170.117 657.722 170.117C646.164 170.117 636.218 167.56 627.876 162.447L627.867 162.438Z" fill="white"/>
<path d="M725.19 46.8554H745.434V64.5304H745.897C748.613 58.5647 752.877 53.7383 758.698 50.0514C764.518 46.3737 771.303 44.5303 779.061 44.5303C784.567 44.5303 789.554 45.4381 794.012 47.263C798.47 49.088 802.326 51.7188 805.589 55.1742C808.842 58.6202 811.326 62.8259 813.032 67.7912H813.495C815.748 62.9093 818.751 58.7407 822.514 55.2946C826.277 51.8485 830.615 49.1899 835.546 47.3279C840.468 45.4659 845.76 44.5395 851.424 44.5395C859.414 44.5395 866.356 46.1885 872.251 49.477C878.146 52.7749 882.725 57.3882 885.978 63.3169C889.232 69.2456 890.863 76.2396 890.863 84.3083V167.792H870.62V88.9586C870.62 80.6677 868.423 74.1739 864.048 69.4865C859.664 64.7991 853.481 62.4554 845.492 62.4554C840.143 62.4554 835.407 63.6782 831.301 66.1145C827.186 68.5601 823.969 71.9321 821.643 76.2304C819.316 80.5287 818.148 85.4384 818.148 90.941V167.801H797.905V86.7539C797.905 79.3893 795.653 73.4976 791.157 69.0789C786.662 64.6601 780.646 62.4554 773.12 62.4554C767.772 62.4554 763.017 63.7523 758.864 66.3461C754.712 68.9399 751.44 72.4508 749.03 76.8696C746.629 81.2883 745.424 86.3277 745.424 91.9878V167.801H725.181V46.8554H725.19Z" fill="white"/>
<path d="M931.758 162.438C923.416 157.324 917.02 150.098 912.562 140.751C908.103 131.414 905.87 120.427 905.87 107.792V107.671C905.87 95.193 908.122 84.2064 912.617 74.7112C917.113 65.2159 923.434 57.8143 931.582 52.5063C939.729 47.1982 949.304 44.5396 960.315 44.5396C971.327 44.5396 980.809 47.0778 988.762 52.1542C996.714 57.2307 1002.82 64.3452 1007.09 73.4884C1011.35 82.6315 1013.48 93.2569 1013.48 105.346V112.785H915.991V96.9716H1003.48L993.238 111.627V103.836C993.238 94.4612 991.82 86.7075 988.993 80.5843C986.157 74.461 982.264 69.9033 977.305 66.9204C972.337 63.9376 966.637 62.4461 960.204 62.4461C953.771 62.4461 947.988 64.0117 942.871 67.152C937.755 70.2924 933.713 74.9427 930.775 81.1031C927.828 87.2634 926.354 94.841 926.354 103.836V111.627C926.354 120.158 927.809 127.44 930.72 133.489C933.63 139.538 937.755 144.17 943.112 147.384C948.46 150.599 954.782 152.211 962.076 152.211C967.193 152.211 971.772 151.432 975.804 149.885C979.836 148.338 983.209 146.208 985.925 143.494C988.641 140.779 990.578 137.676 991.746 134.193L992.098 133.146H1011.99L1011.76 134.313C1010.75 139.279 1008.83 143.929 1006 148.264C1003.17 152.609 999.541 156.426 995.12 159.714C990.699 163.012 985.656 165.569 979.993 167.384C974.33 169.209 968.203 170.117 961.613 170.117C950.055 170.117 940.109 167.56 931.767 162.447L931.758 162.438Z" fill="white"/>
<path d="M1029.08 46.8555H1049.32V64.0673H1049.79C1053.04 58.4072 1057.78 53.7383 1063.98 50.0607C1070.18 46.383 1077.86 44.5396 1087.01 44.5396C1100.28 44.5396 1110.57 48.5507 1117.91 56.573C1125.24 64.5953 1128.9 75.5078 1128.9 89.3014V167.783H1108.65V92.9049C1108.65 83.0577 1106.35 75.5264 1101.73 70.2924C1097.11 65.0585 1090.15 62.4461 1080.85 62.4461C1074.49 62.4461 1068.94 63.8635 1064.21 66.6889C1059.48 69.5235 1055.81 73.4884 1053.22 78.6111C1050.62 83.7247 1049.32 89.7368 1049.32 96.6381V167.801H1029.07V46.8555H1029.08Z" fill="white"/>
<path d="M1164.28 162.206C1158.77 156.935 1156.02 148.524 1156.02 136.972V63.6041H1138.33V46.8647H1156.02L1155.75 11.0979H1176.69L1176.96 46.8647H1199.99V63.6041H1176.96V136.861C1176.96 143.299 1178.36 147.653 1181.15 149.941C1183.94 152.229 1188.05 153.369 1193.47 153.369C1194.72 153.369 1195.89 153.313 1197.02 153.193C1198.15 153.072 1199.14 152.98 1199.99 152.905V169.302C1198.75 169.459 1197.14 169.626 1195.16 169.821C1193.19 170.015 1191.19 170.108 1189.17 170.108C1178.08 170.108 1169.78 167.477 1164.28 162.197V162.206Z" fill="white"/>
</g>
<defs>
<clipPath id="clip0_103_1864">
<rect width="1200" height="170.108" fill="white"/>
</clipPath>
</defs>
</svg>
