<svg width="18" height="18" viewBox="0 0 18 18" fill="none" xmlns="http://www.w3.org/2000/svg">
<path d="M2.44961 10.7925C0.999413 9.35303 0.268944 7.7417 0.258202 6.02295C0.268944 3.11182 2.62148 0.759277 5.52187 0.759277C6.73574 0.759277 7.91738 1.17822 8.83047 1.9624C9.76504 1.17822 10.9467 0.759277 12.182 0.759277C15.0717 0.759277 17.4242 3.11182 17.4242 6.02295C17.4242 7.7417 16.6937 9.35303 15.2543 10.7925L8.83047 17.1948L2.44961 10.7925ZM2.21328 6.02295C2.23476 7.19385 2.76113 8.34326 3.84609 9.43896L8.83047 14.4233L13.8363 9.43896C14.932 8.34326 15.4584 7.19385 15.4906 6.02295C15.4584 4.19678 13.976 2.7251 12.182 2.71436C11.1078 2.7251 10.2055 3.19775 8.83047 4.79834C7.49844 3.19775 6.57461 2.7251 5.52187 2.71436C3.70644 2.7251 2.23476 4.19678 2.21328 6.02295Z" fill="#434343"/>
</svg>
