<svg xmlns="http://www.w3.org/2000/svg" viewBox="0 0 264 172" width="264" height="172" preserveAspectRatio="xMidYMid meet" style="width: 100%; height: 100%; transform: translate3d(0px, 0px, 0px);"><defs><clipPath id="__lottie_element_87"><rect width="264" height="172" x="0" y="0"></rect></clipPath></defs><g clip-path="url(#__lottie_element_87)"><g transform="matrix(0.6800000071525574,0,0,0.6800000071525574,93.58499908447266,87.16999816894531)" opacity="1" style="display: block;"><path fill="rgb(255,255,255)" fill-opacity="1" d=" M-113.5,-62.412174224853516 C-113.5,-62.412174224853516 -137.625,-46.162174224853516 -137.625,-46.162174224853516 C-137.625,-46.162174224853516 -137.5,124.75 -137.5,124.75 C-137.5,124.75 -113.375,110.5 -113.375,110.5 C-113.375,110.5 -113.5,-62.412174224853516 -113.5,-62.412174224853516z"></path></g><g transform="matrix(0.6800000071525574,0,0,0.6800000071525574,155.468994140625,87.16999816894531)" opacity="1" style="display: block;"><path fill="rgb(255,255,255)" fill-opacity="1" d=" M-113.5,13.86881160736084 C-113.5,13.86881160736084 -137.625,30.118812561035156 -137.625,30.118812561035156 C-137.625,30.118812561035156 -137.5,124.75 -137.5,124.75 C-137.5,124.75 -113.375,110.5 -113.375,110.5 C-113.375,110.5 -113.5,13.86881160736084 -113.5,13.86881160736084z"></path></g><g transform="matrix(0.6800000071525574,0,0,0.6800000071525574,217.3520050048828,87.16999816894531)" opacity="1" style="display: block;"><path fill="rgb(255,255,255)" fill-opacity="1" d=" M-113.5,-10.393861770629883 C-113.5,-10.393861770629883 -137.625,5.856137752532959 -137.625,5.856137752532959 C-137.625,5.856137752532959 -137.5,124.75 -137.5,124.75 C-137.5,124.75 -113.375,110.5 -113.375,110.5 C-113.375,110.5 -113.5,-10.393861770629883 -113.5,-10.393861770629883z"></path></g><g transform="matrix(0.6800000071525574,0,0,0.6800000071525574,279.27899169921875,87.16999816894531)" opacity="1" style="display: block;"><path fill="rgb(255,255,255)" fill-opacity="1" d=" M-113.625,-0.4279945194721222 C-113.625,-0.4279945194721222 -137.75,15.822005271911621 -137.75,15.822005271911621 C-137.75,15.822005271911621 -137.5,124.75 -137.5,124.75 C-137.5,124.75 -113.375,110.5 -113.375,110.5 C-113.375,110.5 -113.625,-0.4279945194721222 -113.625,-0.4279945194721222z"></path></g><g transform="matrix(0.6800000071525574,0,0,0.6800000071525574,341.0950012207031,87.16999816894531)" opacity="1" style="display: block;"><path fill="rgb(255,255,255)" fill-opacity="1" d=" M-113.77672576904297,-65.53296661376953 C-113.77672576904297,-65.53296661376953 -137.9017333984375,-49.28296661376953 -137.9017333984375,-49.28296661376953 C-137.9017333984375,-49.28296661376953 -137.5,124.75 -137.5,124.75 C-137.5,124.75 -113.375,110.5 -113.375,110.5 C-113.375,110.5 -113.77672576904297,-65.53296661376953 -113.77672576904297,-65.53296661376953z"></path></g></g></svg>